
<svg xmlns="http://www.w3.org/2000/svg" width="190" height="40" viewBox="0 0 190 40"><g fill="none" fill-rule="evenodd"><path fill="#FFF" fill-rule="nonzero" >
<path d="M0 0 C148.5 0 297 0 450 0 C450 38.94 450 77.88 450 118 C301.5 118 153 118 0 118 C0 79.06 0 40.12 0 0 Z " fill="#050407" transform="translate(0,0)"/>
<path d="M0 0 C148.5 0 297 0 450 0 C450 2.64 450 5.28 450 8 C301.5 8 153 8 0 8 C0 5.36 0 2.72 0 0 Z " fill="#010012" transform="translate(0,110)"/>
<path d="M0 0 C5.84620642 2.66747061 9.48087462 6.45818362 11.9921875 12.4375 C14.09465305 16.01947835 15.99619927 16.6220668 19.6796875 18.25390625 C23.65443318 20.35772671 25.75337264 23.72453168 27.9921875 27.5625 C29.67546632 34.2956153 29.42595203 40.47738183 25.94921875 46.55859375 C22.76391103 50.95921888 18.81576821 53.57261467 13.6796875 55.3125 C7.01342849 56.25912871 1.83399959 55.73255274 -3.66796875 51.73828125 C-6.72106054 49.1038167 -8.92723328 46.74187898 -10.0078125 42.8125 C-11.86720184 39.27080602 -14.57936101 38.41527496 -18.0625 36.62890625 C-22.93994599 33.78513584 -25.52267219 29.60381516 -27.3203125 24.3125 C-28.26713332 17.64488811 -27.73657525 12.47172312 -23.75 6.96484375 C-17.35505373 -0.42603677 -9.44542047 -2.7986431 0 0 Z " fill="#F9F9F9" transform="translate(69.3203125,24.6875)"/>
<path d="M0 0 C18.89655172 0 18.89655172 0 23.875 4.8125 C25.47535903 7.92430922 24.96539483 9.69007487 24 13 C22.4375 15.375 22.4375 15.375 21 17 C21.66 17.495 22.32 17.99 23 18.5 C25.26307216 21.32884019 25.54146027 23.32132749 25.7265625 26.90234375 C24.51588494 30.39768702 22.19704732 32.35950551 19 34 C15.67216671 34.58060222 12.48953722 34.47589724 9.125 34.3125 C6.11375 34.209375 3.1025 34.10625 0 34 C0 22.78 0 11.56 0 0 Z " fill="#F4F4F4" transform="translate(123,33)"/>
<path d="M0 0 C3.89755909 3.52636298 6.44133229 6.54830915 6.78515625 11.83984375 C6.44723921 17.32069337 5.32952782 21.15595443 1.625 25.375 C-2.24606763 28.49336003 -6.44813816 29.52017457 -11.375 29.375 C-15.73677499 28.48839601 -18.63109965 27.13847668 -21.75 23.9375 C-25.50496641 18.01620681 -25.85860153 14.26938358 -24.375 7.375 C-22.29079551 3.04626759 -19.76642087 0.23088621 -15.43359375 -1.99609375 C-10.0516267 -3.6403 -4.93566233 -2.37643001 0 0 Z " fill="#070609" transform="translate(71.375,30.625)"/>
<path d="M0 0 C3.53214485 2.01836849 5.80160052 4.07796533 7 8 C7.46225901 12.77667642 7.49973779 15.01903323 5.3125 19.3125 C1.95077759 23.21936658 -0.28642417 24.78190853 -5.4375 25.4375 C-10.63636767 24.79904257 -13.55338486 22.73593816 -16.875 18.75 C-18.36553812 15.10646236 -18.69184652 11.84275621 -18 8 C-13.62151669 -0.15303789 -8.70992114 -1.04570063 0 0 Z " fill="#F3F3F3" transform="translate(297,43)"/>
<path d="M0 0 C2.31 0 4.62 0 7 0 C9.97 8.25 12.94 16.5 16 25 C18.97 16.75 21.94 8.5 25 0 C27.31 0 29.62 0 32 0 C29.8298389 7.69959789 27.15907228 15.15218027 24.3125 22.625 C23.68891602 24.27435547 23.68891602 24.27435547 23.05273438 25.95703125 C22.03818089 28.63918415 21.02055394 31.32012583 20 34 C17.36 34 14.72 34 12 34 C8.84835451 26.72362031 5.95533429 19.36709854 3.1875 11.9375 C2.87353271 11.10436279 2.55956543 10.27122559 2.23608398 9.4128418 C1.94548096 8.62562744 1.65487793 7.83841309 1.35546875 7.02734375 C1.09403076 6.32343506 0.83259277 5.61952637 0.56323242 4.89428711 C0 3 0 3 0 0 Z " fill="#F4F4F4" transform="translate(247,33)"/>
<path d="M0 0 C3.88638422 0.85713405 6.61500327 2.34627498 8.8515625 5.62890625 C9.56547782 8.93582981 9.42218076 12.07827693 9.2265625 15.44140625 C9.19949219 16.32505859 9.17242187 17.20871094 9.14453125 18.11914062 C9.07412119 20.29011739 8.96650856 22.45983154 8.8515625 24.62890625 C6.8715625 24.62890625 4.8915625 24.62890625 2.8515625 24.62890625 C2.5215625 23.96890625 2.1915625 23.30890625 1.8515625 22.62890625 C1.3153125 23.12390625 0.7790625 23.61890625 0.2265625 24.12890625 C-2.81398423 26.04925155 -4.60468521 25.99804711 -8.1484375 25.62890625 C-11.49108955 24.42183746 -12.09548316 23.70833776 -14.1484375 20.62890625 C-14.5234375 18.19140625 -14.5234375 18.19140625 -14.1484375 15.62890625 C-12.27816265 13.38457643 -10.75957346 11.93447423 -8.1484375 10.62890625 C-6.44141015 10.55894611 -4.73175747 10.54450471 -3.0234375 10.56640625 C-2.11335937 10.57542969 -1.20328125 10.58445312 -0.265625 10.59375 C0.43304688 10.60535156 1.13171875 10.61695313 1.8515625 10.62890625 C1.5215625 9.30890625 1.1915625 7.98890625 0.8515625 6.62890625 C-2.06495924 6.46209516 -2.06495924 6.46209516 -5.1484375 6.62890625 C-5.8084375 7.28890625 -6.4684375 7.94890625 -7.1484375 8.62890625 C-10.2734375 8.75390625 -10.2734375 8.75390625 -13.1484375 8.62890625 C-12.79451083 6.15141958 -12.0836185 4.52283879 -10.7734375 2.37890625 C-7.1761116 -0.01931102 -4.24326526 0.10159931 0 0 Z " fill="#F6F6F6" transform="translate(178.1484375,42.37109375)"/>
<path d="M0 0 C1.98 0 3.96 0 6 0 C6.33 6.27 6.66 12.54 7 19 C7.99 17.68 8.98 16.36 10 15 C13.30141179 11.1652313 13.30141179 11.1652313 16.24609375 10.46875 C18.4375 10.5 18.4375 10.5 22 11 C21.59007812 11.53109375 21.18015625 12.0621875 20.7578125 12.609375 C20.21898437 13.31578125 19.68015625 14.0221875 19.125 14.75 C18.59132812 15.44609375 18.05765625 16.1421875 17.5078125 16.859375 C16.10761086 18.84722603 15.02144735 20.79843386 14 23 C14.6496875 23.69867188 15.299375 24.39734375 15.96875 25.1171875 C16.8040625 26.02726562 17.639375 26.93734375 18.5 27.875 C19.3353125 28.77992187 20.170625 29.68484375 21.03125 30.6171875 C23 33 23 33 23 35 C18.06735751 35.88082902 18.06735751 35.88082902 15 35 C11.86593546 31.98240407 9.42041445 28.60487258 7 25 C6.67 28.3 6.34 31.6 6 35 C4.02 35 2.04 35 0 35 C0 23.45 0 11.9 0 0 Z " fill="#F9F9F9" transform="translate(222,32)"/>
<path d="M0 0 C2.84297563 1.35662905 3.90994129 2.51452478 6 5 C6 6.32 6 7.64 6 9 C4.02 9 2.04 9 0 9 C-0.33 8.01 -0.66 7.02 -1 6 C-4.41642759 5.74984127 -4.41642759 5.74984127 -8 6 C-10.31332486 9.46998729 -10.33957563 10.92509248 -10 15 C-9.01 16.485 -9.01 16.485 -8 18 C-4.41642759 18.25015873 -4.41642759 18.25015873 -1 18 C-0.67 17.01 -0.34 16.02 0 15 C1.98 15 3.96 15 6 15 C5.72698814 18.2761423 5.20885506 19.76503806 3 22.25 C-0.97349044 24.56786942 -4.40486951 25.34038004 -9 25 C-13.41248069 22.87547226 -16.13605934 20.5562994 -18 16 C-18.54768238 11.07085861 -18.54281153 9.01075251 -16.1875 4.625 C-11.568744 -0.9175072 -6.81188781 -0.96065085 0 0 Z " fill="#F1F1F1" transform="translate(210,43)"/>
<path d="M0 0 C3.1875 -0.4375 3.1875 -0.4375 7 0 C9.11158381 2.08545034 10.56739143 4.41206193 12 7 C14.33524782 4.74259377 16.18705073 2.7194239 18 0 C21.625 -0.1875 21.625 -0.1875 25 0 C21.26132404 6.70383275 21.26132404 6.70383275 19.125 9.125 C17.72010565 10.98192555 17.72010565 10.98192555 18.5 13.3125 C20.12993766 16.23280497 21.96808959 18.8766509 23.9765625 21.546875 C25 23 25 23 25 24 C21.8125 24.4375 21.8125 24.4375 18 24 C15.88841619 21.91454966 14.43260857 19.58793807 13 17 C10.66475218 19.25740623 8.81294927 21.2805761 7 24 C3.375 24.1875 3.375 24.1875 0 24 C3.73867596 17.29616725 3.73867596 17.29616725 5.875 14.875 C7.27989435 13.01807445 7.27989435 13.01807445 6.5 10.6875 C4.87006234 7.76719503 3.03191041 5.1233491 1.0234375 2.453125 C0 1 0 1 0 0 Z " fill="#F6F6F6" transform="translate(305,43)"/>
<path d="M0 0 C1.98 0 3.96 0 6 0 C6 11.55 6 23.1 6 35 C4.02 35 2.04 35 0 35 C0 23.45 0 11.9 0 0 Z " fill="#FDFDFD" transform="translate(153,32)"/>
<path d="M0 0 C5.75 0.75 5.75 0.75 8 3 C8.56005895 10.05674282 8.56005895 10.05674282 6.8125 13 C4.33474158 14.36703913 2.78844081 14.41826612 0 14 C-1.8125 12.9375 -1.8125 12.9375 -3 11 C-3.41857482 7.16306413 -3.54644269 4.88796936 -1.5 1.5625 C-1.005 1.046875 -0.51 0.53125 0 0 Z " fill="#0B0A0D" transform="translate(289,48)"/>
<path d="M0 0 C5.02254631 -0.2954439 7.89542386 0.01485372 12 3 C11.25 7.75 11.25 7.75 9 10 C5.98173347 10.27240673 3.03629378 10.08675125 0 10 C0 6.7 0 3.4 0 0 Z " fill="#0D0C0F" transform="translate(130,52)"/>
<path d="M0 0 C1.45792884 -0.05399736 2.91642712 -0.09279177 4.375 -0.125 C5.18710938 -0.14820313 5.99921875 -0.17140625 6.8359375 -0.1953125 C9 0 9 0 11 2 C10.44444444 6.55555556 10.44444444 6.55555556 9 8 C7.48071962 8.07179964 5.95832518 8.08392007 4.4375 8.0625 C3.61121094 8.05347656 2.78492188 8.04445313 1.93359375 8.03515625 C1.29550781 8.02355469 0.65742188 8.01195312 0 8 C0 5.36 0 2.72 0 0 Z " fill="#060508" transform="translate(130,39)"/>
<path d="M0 0 C1.4540625 0.0309375 1.4540625 0.0309375 2.9375 0.0625 C3.2675 1.7125 3.5975 3.3625 3.9375 5.0625 C-6.62058656 5.24701025 -6.62058656 5.24701025 -11.0625 4.0625 C-11.0625 3.7325 -11.0625 3.4025 -11.0625 3.0625 C-9.928125 2.753125 -8.79375 2.44375 -7.625 2.125 C-0.5367268 0.01095361 -0.5367268 0.01095361 0 0 Z " fill="#151417" transform="translate(176.0625,47.9375)"/>
<path d="M0 0 C1.134375 0.020625 2.26875 0.04125 3.4375 0.0625 C2.5625 3.9375 2.5625 3.9375 1.4375 5.0625 C-0.56208364 5.10330783 -2.56295254 5.10504356 -4.5625 5.0625 C-4.5625 0.08004386 -4.5625 0.08004386 0 0 Z " fill="#09080B" transform="translate(176.5625,56.9375)"/>
</svg>
