<?xml version="1.0" encoding="UTF-8"?>
<svg version="1.1" xmlns="http://www.w3.org/2000/svg" width="766" height="370">
<path d="M0 0 C252.78 0 505.56 0 766 0 C766 122.1 766 244.2 766 370 C513.22 370 260.44 370 0 370 C0 247.9 0 125.8 0 0 Z " fill="#101018" transform="translate(0,0)"/>
<path d="M0 0 C9.9 0 19.8 0 30 0 C30 0.66 30 1.32 30 2 C30.66 2 31.32 2 32 2 C32 2.66 32 3.32 32 4 C34.64 4 37.28 4 40 4 C40 4.66 40 5.32 40 6 C40.66 6 41.32 6 42 6 C42 6.66 42 7.32 42 8 C43.98 8 45.96 8 48 8 C48 8.66 48 9.32 48 10 C49.32 10 50.64 10 52 10 C52 10.66 52 11.32 52 12 C52.66 12 53.32 12 54 12 C54 12.66 54 13.32 54 14 C54.66 14 55.32 14 56 14 C56 14.66 56 15.32 56 16 C56.66 16 57.32 16 58 16 C58 16.66 58 17.32 58 18 C58.66 18 59.32 18 60 18 C60 18.66 60 19.32 60 20 C60.66 20 61.32 20 62 20 C62 20.66 62 21.32 62 22 C62.66 22 63.32 22 64 22 C64 22.66 64 23.32 64 24 C64.66 24 65.32 24 66 24 C66 24.66 66 25.32 66 26 C66.66 26 67.32 26 68 26 C68 27.32 68 28.64 68 30 C68.66 30 69.32 30 70 30 C70 31.32 70 32.64 70 34 C70.66 34 71.32 34 72 34 C72 34.66 72 35.32 72 36 C72.66 36 73.32 36 74 36 C74 37.32 74 38.64 74 40 C74.66 40 75.32 40 76 40 C76 42.64 76 45.28 76 48 C76.66 48 77.32 48 78 48 C78 51.96 78 55.92 78 60 C78.66 60 79.32 60 80 60 C80 65.94 80 71.88 80 78 C79.34 78 78.68 78 78 78 C78 79.98 78 81.96 78 84 C76.68 84 75.36 84 74 84 C74 84.66 74 85.32 74 86 C73.34 86 72.68 86 72 86 C72 86.66 72 87.32 72 88 C70.02 88 68.04 88 66 88 C66 88.66 66 89.32 66 90 C64.02 90 62.04 90 60 90 C60 90.66 60 91.32 60 92 C58.68 92 57.36 92 56 92 C56 92.66 56 93.32 56 94 C54.68 94 53.36 94 52 94 C52 94.66 52 95.32 52 96 C49.36 96 46.72 96 44 96 C44 96.66 44 97.32 44 98 C43.34 98 42.68 98 42 98 C42 98.66 42 99.32 42 100 C39.36 100 36.72 100 34 100 C34 100.66 34 101.32 34 102 C32.68 102 31.36 102 30 102 C30 102.66 30 103.32 30 104 C18.78 104 7.56 104 -4 104 C-4 103.34 -4 102.68 -4 102 C-5.32 102 -6.64 102 -8 102 C-8 102.66 -8 103.32 -8 104 C-7.34 104 -6.68 104 -6 104 C-6 104.66 -6 105.32 -6 106 C-4.68 106 -3.36 106 -2 106 C-2 106.66 -2 107.32 -2 108 C-0.68 108 0.64 108 2 108 C2 108.66 2 109.32 2 110 C4.64 110 7.28 110 10 110 C10 110.66 10 111.32 10 112 C12.64 112 15.28 112 18 112 C18 112.66 18 113.32 18 114 C25.92 114 33.84 114 42 114 C42 113.34 42 112.68 42 112 C45.96 112 49.92 112 54 112 C54 111.34 54 110.68 54 110 C54.66 110 55.32 110 56 110 C56 109.34 56 108.68 56 108 C57.98 108 59.96 108 62 108 C62 107.34 62 106.68 62 106 C63.32 106 64.64 106 66 106 C66 106.66 66 107.32 66 108 C65.34 108 64.68 108 64 108 C64 108.66 64 109.32 64 110 C63.34 110 62.68 110 62 110 C62 110.66 62 111.32 62 112 C61.34 112 60.68 112 60 112 C60 112.66 60 113.32 60 114 C58.68 114 57.36 114 56 114 C56 114.66 56 115.32 56 116 C55.34 116 54.68 116 54 116 C54 116.66 54 117.32 54 118 C51.36 118 48.72 118 46 118 C46 118.66 46 119.32 46 120 C39.4 120 32.8 120 26 120 C26 120.66 26 121.32 26 122 C28.64 122 31.28 122 34 122 C34 122.66 34 123.32 34 124 C35.98 124 37.96 124 40 124 C40 124.66 40 125.32 40 126 C38.02 126 36.04 126 34 126 C34 126.66 34 127.32 34 128 C32.02 128 30.04 128 28 128 C28 128.66 28 129.32 28 130 C18.1 130 8.2 130 -2 130 C-2 129.34 -2 128.68 -2 128 C-3.32 128 -4.64 128 -6 128 C-6 127.34 -6 126.68 -6 126 C-7.98 126 -9.96 126 -12 126 C-12 125.34 -12 124.68 -12 124 C-13.32 124 -14.64 124 -16 124 C-16 123.34 -16 122.68 -16 122 C-17.32 122 -18.64 122 -20 122 C-20 121.34 -20 120.68 -20 120 C-21.32 120 -22.64 120 -24 120 C-24 119.34 -24 118.68 -24 118 C-24.66 118 -25.32 118 -26 118 C-26 117.34 -26 116.68 -26 116 C-26.66 116 -27.32 116 -28 116 C-28 115.34 -28 114.68 -28 114 C-28.66 114 -29.32 114 -30 114 C-30 113.34 -30 112.68 -30 112 C-30.66 112 -31.32 112 -32 112 C-32 111.34 -32 110.68 -32 110 C-32.66 110 -33.32 110 -34 110 C-34 109.34 -34 108.68 -34 108 C-34.66 108 -35.32 108 -36 108 C-36 106.68 -36 105.36 -36 104 C-37.32 104 -38.64 104 -40 104 C-40 102.68 -40 101.36 -40 100 C-40.66 100 -41.32 100 -42 100 C-42 98.68 -42 97.36 -42 96 C-42.66 96 -43.32 96 -44 96 C-44 94.68 -44 93.36 -44 92 C-44.66 92 -45.32 92 -46 92 C-46 90.02 -46 88.04 -46 86 C-46.66 86 -47.32 86 -48 86 C-48 84.02 -48 82.04 -48 80 C-48.66 80 -49.32 80 -50 80 C-50 69.44 -50 58.88 -50 48 C-49.34 48 -48.68 48 -48 48 C-48 46.02 -48 44.04 -48 42 C-47.34 42 -46.68 42 -46 42 C-46 40.68 -46 39.36 -46 38 C-45.34 38 -44.68 38 -44 38 C-44 36.68 -44 35.36 -44 34 C-43.34 34 -42.68 34 -42 34 C-42 32.68 -42 31.36 -42 30 C-41.34 30 -40.68 30 -40 30 C-40 29.34 -40 28.68 -40 28 C-39.34 28 -38.68 28 -38 28 C-38 27.34 -38 26.68 -38 26 C-37.34 26 -36.68 26 -36 26 C-36 24.68 -36 23.36 -36 22 C-35.34 22 -34.68 22 -34 22 C-34 21.34 -34 20.68 -34 20 C-33.34 20 -32.68 20 -32 20 C-32 19.34 -32 18.68 -32 18 C-31.34 18 -30.68 18 -30 18 C-30 17.34 -30 16.68 -30 16 C-28.68 16 -27.36 16 -26 16 C-26 15.34 -26 14.68 -26 14 C-25.34 14 -24.68 14 -24 14 C-24 13.34 -24 12.68 -24 12 C-23.34 12 -22.68 12 -22 12 C-22 11.34 -22 10.68 -22 10 C-20.68 10 -19.36 10 -18 10 C-18 9.34 -18 8.68 -18 8 C-17.34 8 -16.68 8 -16 8 C-16 7.34 -16 6.68 -16 6 C-14.68 6 -13.36 6 -12 6 C-12 5.34 -12 4.68 -12 4 C-10.02 4 -8.04 4 -6 4 C-6 3.34 -6 2.68 -6 2 C-4.02 2 -2.04 2 0 2 C0 1.34 0 0.68 0 0 Z " fill="#6CBAD7" transform="translate(371,50)"/>
<path d="M0 0 C16.5 0 33 0 50 0 C50 0.66 50 1.32 50 2 C50.66 2 51.32 2 52 2 C52 2.66 52 3.32 52 4 C53.32 4 54.64 4 56 4 C56 11.92 56 19.84 56 28 C55.34 28 54.68 28 54 28 C54 28.66 54 29.32 54 30 C53.34 30 52.68 30 52 30 C52 30.66 52 31.32 52 32 C34.84 32 17.68 32 0 32 C0 31.34 0 30.68 0 30 C-0.66 30 -1.32 30 -2 30 C-2 29.34 -2 28.68 -2 28 C-2.66 28 -3.32 28 -4 28 C-4 20.08 -4 12.16 -4 4 C-3.34 4 -2.68 4 -2 4 C-2 3.34 -2 2.68 -2 2 C-1.34 2 -0.68 2 0 2 C0 1.34 0 0.68 0 0 Z " fill="#141922" transform="translate(477,218)"/>
<path d="M0 0 C5.94 0 11.88 0 18 0 C18 0.66 18 1.32 18 2 C20.64 2 23.28 2 26 2 C26 2.66 26 3.32 26 4 C27.32 4 28.64 4 30 4 C30 4.66 30 5.32 30 6 C22.08 6 14.16 6 6 6 C6 6.66 6 7.32 6 8 C4.68 8 3.36 8 2 8 C2 8.66 2 9.32 2 10 C0.68 10 -0.64 10 -2 10 C-2 10.66 -2 11.32 -2 12 C-2.66 12 -3.32 12 -4 12 C-4 12.66 -4 13.32 -4 14 C-4.66 14 -5.32 14 -6 14 C-6 14.66 -6 15.32 -6 16 C-6.66 16 -7.32 16 -8 16 C-8 16.66 -8 17.32 -8 18 C-8.66 18 -9.32 18 -10 18 C-10 18.66 -10 19.32 -10 20 C-10.66 20 -11.32 20 -12 20 C-12 21.32 -12 22.64 -12 24 C-12.66 24 -13.32 24 -14 24 C-14 24.66 -14 25.32 -14 26 C-14.66 26 -15.32 26 -16 26 C-16 27.32 -16 28.64 -16 30 C-16.66 30 -17.32 30 -18 30 C-18 37.92 -18 45.84 -18 54 C-17.34 54 -16.68 54 -16 54 C-16 55.98 -16 57.96 -16 60 C-15.34 60 -14.68 60 -14 60 C-14 61.32 -14 62.64 -14 64 C-13.34 64 -12.68 64 -12 64 C-12 65.32 -12 66.64 -12 68 C-10.68 68 -9.36 68 -8 68 C-8 69.32 -8 70.64 -8 72 C-7.34 72 -6.68 72 -6 72 C-6 72.66 -6 73.32 -6 74 C-5.34 74 -4.68 74 -4 74 C-4 74.66 -4 75.32 -4 76 C-2.68 76 -1.36 76 0 76 C0 76.66 0 77.32 0 78 C1.32 78 2.64 78 4 78 C4 78.66 4 79.32 4 80 C5.98 80 7.96 80 10 80 C10 80.66 10 81.32 10 82 C16.6 82 23.2 82 30 82 C30 82.66 30 83.32 30 84 C28.68 84 27.36 84 26 84 C26 84.66 26 85.32 26 86 C23.36 86 20.72 86 18 86 C18 86.66 18 87.32 18 88 C12.06 88 6.12 88 0 88 C0 87.34 0 86.68 0 86 C-0.66 86 -1.32 86 -2 86 C-2 85.34 -2 84.68 -2 84 C-3.98 84 -5.96 84 -8 84 C-8 83.34 -8 82.68 -8 82 C-9.32 82 -10.64 82 -12 82 C-12 81.34 -12 80.68 -12 80 C-13.32 80 -14.64 80 -16 80 C-16 79.34 -16 78.68 -16 78 C-16.66 78 -17.32 78 -18 78 C-18 77.34 -18 76.68 -18 76 C-18.66 76 -19.32 76 -20 76 C-20 75.34 -20 74.68 -20 74 C-20.66 74 -21.32 74 -22 74 C-22 73.34 -22 72.68 -22 72 C-22.66 72 -23.32 72 -24 72 C-24 71.34 -24 70.68 -24 70 C-24.66 70 -25.32 70 -26 70 C-26 69.34 -26 68.68 -26 68 C-26.66 68 -27.32 68 -28 68 C-28 66.68 -28 65.36 -28 64 C-28.66 64 -29.32 64 -30 64 C-30 62.02 -30 60.04 -30 58 C-30.66 58 -31.32 58 -32 58 C-32 56.68 -32 55.36 -32 54 C-32.66 54 -33.32 54 -34 54 C-34 46.74 -34 39.48 -34 32 C-33.34 32 -32.68 32 -32 32 C-32 31.34 -32 30.68 -32 30 C-31.34 30 -30.68 30 -30 30 C-30 28.02 -30 26.04 -30 24 C-29.34 24 -28.68 24 -28 24 C-28 22.68 -28 21.36 -28 20 C-27.34 20 -26.68 20 -26 20 C-26 19.34 -26 18.68 -26 18 C-25.34 18 -24.68 18 -24 18 C-24 17.34 -24 16.68 -24 16 C-23.34 16 -22.68 16 -22 16 C-22 14.68 -22 13.36 -22 12 C-20.68 12 -19.36 12 -18 12 C-18 11.34 -18 10.68 -18 10 C-17.34 10 -16.68 10 -16 10 C-16 9.34 -16 8.68 -16 8 C-15.34 8 -14.68 8 -14 8 C-14 7.34 -14 6.68 -14 6 C-12.68 6 -11.36 6 -10 6 C-10 5.34 -10 4.68 -10 4 C-8.02 4 -6.04 4 -4 4 C-4 3.34 -4 2.68 -4 2 C-2.68 2 -1.36 2 0 2 C0 1.34 0 0.68 0 0 Z " fill="#141720" transform="translate(373,64)"/>
<path d="M0 0 C17.16 0 34.32 0 52 0 C52 0.66 52 1.32 52 2 C52.66 2 53.32 2 54 2 C54 2.66 54 3.32 54 4 C54.66 4 55.32 4 56 4 C56 8.62 56 13.24 56 18 C56.66 18 57.32 18 58 18 C58 18.66 58 19.32 58 20 C58.66 20 59.32 20 60 20 C60 22.64 60 25.28 60 28 C59.34 28 58.68 28 58 28 C58 28.66 58 29.32 58 30 C57.34 30 56.68 30 56 30 C56 30.66 56 31.32 56 32 C37.52 32 19.04 32 0 32 C0 26.06 0 20.12 0 14 C15.84 14 31.68 14 48 14 C48 13.34 48 12.68 48 12 C48.66 12 49.32 12 50 12 C50 10.02 50 8.04 50 6 C49.34 6 48.68 6 48 6 C48 5.34 48 4.68 48 4 C32.16 4 16.32 4 0 4 C0 2.68 0 1.36 0 0 Z " fill="#6AB7D3" transform="translate(39,218)"/>
<path d="M0 0 C4.62 0 9.24 0 14 0 C14 0.66 14 1.32 14 2 C15.98 2 17.96 2 20 2 C20 2.66 20 3.32 20 4 C21.32 4 22.64 4 24 4 C24 4.66 24 5.32 24 6 C24.66 6 25.32 6 26 6 C26 6.66 26 7.32 26 8 C27.32 8 28.64 8 30 8 C30 8.66 30 9.32 30 10 C30.66 10 31.32 10 32 10 C32 11.32 32 12.64 32 14 C32.66 14 33.32 14 34 14 C34 14.66 34 15.32 34 16 C34.66 16 35.32 16 36 16 C36 17.32 36 18.64 36 20 C36.66 20 37.32 20 38 20 C38 21.98 38 23.96 38 26 C38.66 26 39.32 26 40 26 C40 30.62 40 35.24 40 40 C39.34 40 38.68 40 38 40 C38 41.32 38 42.64 38 44 C37.34 44 36.68 44 36 44 C36 40.04 36 36.08 36 32 C35.34 32 34.68 32 34 32 C34 30.68 34 29.36 34 28 C33.34 28 32.68 28 32 28 C32 26.68 32 25.36 32 24 C31.34 24 30.68 24 30 24 C30 22.68 30 21.36 30 20 C28.68 20 27.36 20 26 20 C26 19.34 26 18.68 26 18 C25.34 18 24.68 18 24 18 C24 17.34 24 16.68 24 16 C23.34 16 22.68 16 22 16 C22 15.34 22 14.68 22 14 C20.02 14 18.04 14 16 14 C16 13.34 16 12.68 16 12 C10.06 12 4.12 12 -2 12 C-2 12.66 -2 13.32 -2 14 C-3.32 14 -4.64 14 -6 14 C-6 14.66 -6 15.32 -6 16 C-7.32 16 -8.64 16 -10 16 C-10 16.66 -10 17.32 -10 18 C-10.66 18 -11.32 18 -12 18 C-12 18.66 -12 19.32 -12 20 C-12.66 20 -13.32 20 -14 20 C-14 20.66 -14 21.32 -14 22 C-14.66 22 -15.32 22 -16 22 C-16 23.32 -16 24.64 -16 26 C-16.66 26 -17.32 26 -18 26 C-18 27.32 -18 28.64 -18 30 C-18.66 30 -19.32 30 -20 30 C-20 35.28 -20 40.56 -20 46 C-20.66 46 -21.32 46 -22 46 C-22 44.68 -22 43.36 -22 42 C-22.66 42 -23.32 42 -24 42 C-24 34.74 -24 27.48 -24 20 C-23.34 20 -22.68 20 -22 20 C-22 19.34 -22 18.68 -22 18 C-21.34 18 -20.68 18 -20 18 C-20 16.68 -20 15.36 -20 14 C-19.34 14 -18.68 14 -18 14 C-18 13.34 -18 12.68 -18 12 C-17.34 12 -16.68 12 -16 12 C-16 11.34 -16 10.68 -16 10 C-15.34 10 -14.68 10 -14 10 C-14 9.34 -14 8.68 -14 8 C-13.34 8 -12.68 8 -12 8 C-12 7.34 -12 6.68 -12 6 C-10.68 6 -9.36 6 -8 6 C-8 5.34 -8 4.68 -8 4 C-6.68 4 -5.36 4 -4 4 C-4 3.34 -4 2.68 -4 2 C-2.68 2 -1.36 2 0 2 C0 1.34 0 0.68 0 0 Z " fill="#151A24" transform="translate(385,74)"/>
<path d="M0 0 C16.5 0 33 0 50 0 C50 0.66 50 1.32 50 2 C50.66 2 51.32 2 52 2 C52 2.66 52 3.32 52 4 C53.32 4 54.64 4 56 4 C56 11.92 56 19.84 56 28 C55.34 28 54.68 28 54 28 C54 28.66 54 29.32 54 30 C53.34 30 52.68 30 52 30 C52 30.66 52 31.32 52 32 C34.84 32 17.68 32 0 32 C0 31.34 0 30.68 0 30 C-0.66 30 -1.32 30 -2 30 C-2 29.34 -2 28.68 -2 28 C-2.66 28 -3.32 28 -4 28 C-4 20.08 -4 12.16 -4 4 C-3.34 4 -2.68 4 -2 4 C-2 3.34 -2 2.68 -2 2 C-1.34 2 -0.68 2 0 2 C0 1.34 0 0.68 0 0 Z M4 4 C4 4.66 4 5.32 4 6 C3.34 6 2.68 6 2 6 C2 12.6 2 19.2 2 26 C2.66 26 3.32 26 4 26 C4 26.66 4 27.32 4 28 C18.52 28 33.04 28 48 28 C48 27.34 48 26.68 48 26 C48.66 26 49.32 26 50 26 C50 19.4 50 12.8 50 6 C49.34 6 48.68 6 48 6 C48 5.34 48 4.68 48 4 C33.48 4 18.96 4 4 4 Z " fill="#68B4D0" transform="translate(477,218)"/>
<path d="M0 0 C3.3 0 6.6 0 10 0 C10 0.66 10 1.32 10 2 C10.66 2 11.32 2 12 2 C12 2.66 12 3.32 12 4 C13.32 4 14.64 4 16 4 C16 4.66 16 5.32 16 6 C16.66 6 17.32 6 18 6 C18 6.66 18 7.32 18 8 C18.66 8 19.32 8 20 8 C20 8.66 20 9.32 20 10 C21.32 10 22.64 10 24 10 C24 10.66 24 11.32 24 12 C25.98 12 27.96 12 30 12 C30 11.34 30 10.68 30 10 C31.32 10 32.64 10 34 10 C34 9.34 34 8.68 34 8 C34.66 8 35.32 8 36 8 C36 7.34 36 6.68 36 6 C37.32 6 38.64 6 40 6 C40 5.34 40 4.68 40 4 C40.66 4 41.32 4 42 4 C42 3.34 42 2.68 42 2 C43.32 2 44.64 2 46 2 C46 1.34 46 0.68 46 0 C48.64 0 51.28 0 54 0 C54 0.66 54 1.32 54 2 C53.34 2 52.68 2 52 2 C52 2.66 52 3.32 52 4 C51.34 4 50.68 4 50 4 C50 4.66 50 5.32 50 6 C48.68 6 47.36 6 46 6 C46 6.66 46 7.32 46 8 C45.34 8 44.68 8 44 8 C44 8.66 44 9.32 44 10 C42.68 10 41.36 10 40 10 C40 10.66 40 11.32 40 12 C39.34 12 38.68 12 38 12 C38 12.66 38 13.32 38 14 C36.68 14 35.36 14 34 14 C34 15.32 34 16.64 34 18 C34.66 18 35.32 18 36 18 C36 18.66 36 19.32 36 20 C36.66 20 37.32 20 38 20 C38 20.66 38 21.32 38 22 C39.32 22 40.64 22 42 22 C42 22.66 42 23.32 42 24 C42.66 24 43.32 24 44 24 C44 24.66 44 25.32 44 26 C45.32 26 46.64 26 48 26 C48 26.66 48 27.32 48 28 C48.66 28 49.32 28 50 28 C50 28.66 50 29.32 50 30 C51.32 30 52.64 30 54 30 C54 30.66 54 31.32 54 32 C50.7 32 47.4 32 44 32 C44 31.34 44 30.68 44 30 C43.34 30 42.68 30 42 30 C42 29.34 42 28.68 42 28 C40.68 28 39.36 28 38 28 C38 27.34 38 26.68 38 26 C37.34 26 36.68 26 36 26 C36 25.34 36 24.68 36 24 C34.68 24 33.36 24 32 24 C32 23.34 32 22.68 32 22 C31.34 22 30.68 22 30 22 C30 21.34 30 20.68 30 20 C28.68 20 27.36 20 26 20 C26 20.66 26 21.32 26 22 C24.68 22 23.36 22 22 22 C22 22.66 22 23.32 22 24 C21.34 24 20.68 24 20 24 C20 24.66 20 25.32 20 26 C18.68 26 17.36 26 16 26 C16 26.66 16 27.32 16 28 C15.34 28 14.68 28 14 28 C14 28.66 14 29.32 14 30 C12.68 30 11.36 30 10 30 C10 30.66 10 31.32 10 32 C6.7 32 3.4 32 0 32 C0 31.34 0 30.68 0 30 C1.32 30 2.64 30 4 30 C4 29.34 4 28.68 4 28 C4.66 28 5.32 28 6 28 C6 27.34 6 26.68 6 26 C7.32 26 8.64 26 10 26 C10 25.34 10 24.68 10 24 C10.66 24 11.32 24 12 24 C12 23.34 12 22.68 12 22 C13.32 22 14.64 22 16 22 C16 21.34 16 20.68 16 20 C16.66 20 17.32 20 18 20 C18 19.34 18 18.68 18 18 C19.32 18 20.64 18 22 18 C22 17.34 22 16.68 22 16 C21.34 16 20.68 16 20 16 C20 15.34 20 14.68 20 14 C19.34 14 18.68 14 18 14 C18 13.34 18 12.68 18 12 C16.68 12 15.36 12 14 12 C14 11.34 14 10.68 14 10 C13.34 10 12.68 10 12 10 C12 9.34 12 8.68 12 8 C10.68 8 9.36 8 8 8 C8 7.34 8 6.68 8 6 C7.34 6 6.68 6 6 6 C6 5.34 6 4.68 6 4 C4.68 4 3.36 4 2 4 C2 3.34 2 2.68 2 2 C1.34 2 0.68 2 0 2 C0 1.34 0 0.68 0 0 Z " fill="#65AFCA" transform="translate(549,218)"/>
<path d="M0 0 C0.66 0 1.32 0 2 0 C2 0.66 2 1.32 2 2 C2.66 2 3.32 2 4 2 C4 2.66 4 3.32 4 4 C4.66 4 5.32 4 6 4 C6 4.66 6 5.32 6 6 C6.66 6 7.32 6 8 6 C8 6.66 8 7.32 8 8 C8.66 8 9.32 8 10 8 C10 8.66 10 9.32 10 10 C10.66 10 11.32 10 12 10 C12 10.66 12 11.32 12 12 C12.66 12 13.32 12 14 12 C14 12.66 14 13.32 14 14 C14.66 14 15.32 14 16 14 C16 15.32 16 16.64 16 18 C16.66 18 17.32 18 18 18 C18 18.66 18 19.32 18 20 C19.32 20 20.64 20 22 20 C22 20.66 22 21.32 22 22 C22.66 22 23.32 22 24 22 C24 23.32 24 24.64 24 26 C24.66 26 25.32 26 26 26 C26 26.66 26 27.32 26 28 C26.66 28 27.32 28 28 28 C28 28.66 28 29.32 28 30 C28.66 30 29.32 30 30 30 C30 30.66 30 31.32 30 32 C27.36 32 24.72 32 22 32 C22 31.34 22 30.68 22 30 C21.34 30 20.68 30 20 30 C20 29.34 20 28.68 20 28 C19.34 28 18.68 28 18 28 C18 27.34 18 26.68 18 26 C17.34 26 16.68 26 16 26 C16 24.68 16 23.36 16 22 C15.34 22 14.68 22 14 22 C14 21.34 14 20.68 14 20 C13.34 20 12.68 20 12 20 C12 19.34 12 18.68 12 18 C11.34 18 10.68 18 10 18 C10 17.34 10 16.68 10 16 C9.34 16 8.68 16 8 16 C8 15.34 8 14.68 8 14 C7.34 14 6.68 14 6 14 C6 13.34 6 12.68 6 12 C5.34 12 4.68 12 4 12 C4 10.68 4 9.36 4 8 C2.68 8 1.36 8 0 8 C0 8.66 0 9.32 0 10 C-0.66 10 -1.32 10 -2 10 C-2 10.66 -2 11.32 -2 12 C-2.66 12 -3.32 12 -4 12 C-4 12.66 -4 13.32 -4 14 C-4.66 14 -5.32 14 -6 14 C-6 14.66 -6 15.32 -6 16 C-6.66 16 -7.32 16 -8 16 C-8 17.32 -8 18.64 -8 20 C-8.66 20 -9.32 20 -10 20 C-10 20.66 -10 21.32 -10 22 C-10.66 22 -11.32 22 -12 22 C-12 22.66 -12 23.32 -12 24 C-12.66 24 -13.32 24 -14 24 C-14 24.66 -14 25.32 -14 26 C-14.66 26 -15.32 26 -16 26 C-16 26.66 -16 27.32 -16 28 C-6.1 28 3.8 28 14 28 C14 28.66 14 29.32 14 30 C14.66 30 15.32 30 16 30 C16 30.66 16 31.32 16 32 C2.14 32 -11.72 32 -26 32 C-26 30.68 -26 29.36 -26 28 C-25.34 28 -24.68 28 -24 28 C-24 27.34 -24 26.68 -24 26 C-23.34 26 -22.68 26 -22 26 C-22 25.34 -22 24.68 -22 24 C-21.34 24 -20.68 24 -20 24 C-20 23.34 -20 22.68 -20 22 C-19.34 22 -18.68 22 -18 22 C-18 21.34 -18 20.68 -18 20 C-17.34 20 -16.68 20 -16 20 C-16 19.34 -16 18.68 -16 18 C-15.34 18 -14.68 18 -14 18 C-14 17.34 -14 16.68 -14 16 C-13.34 16 -12.68 16 -12 16 C-12 15.34 -12 14.68 -12 14 C-11.34 14 -10.68 14 -10 14 C-10 13.34 -10 12.68 -10 12 C-9.34 12 -8.68 12 -8 12 C-8 10.68 -8 9.36 -8 8 C-7.34 8 -6.68 8 -6 8 C-6 7.34 -6 6.68 -6 6 C-5.34 6 -4.68 6 -4 6 C-4 5.34 -4 4.68 -4 4 C-3.34 4 -2.68 4 -2 4 C-2 3.34 -2 2.68 -2 2 C-1.34 2 -0.68 2 0 2 C0 1.34 0 0.68 0 0 Z " fill="#68B3CF" transform="translate(211,218)"/>
<path d="M0 0 C1.32 0 2.64 0 4 0 C4 1.32 4 2.64 4 4 C4.66 4 5.32 4 6 4 C6 4.66 6 5.32 6 6 C7.32 6 8.64 6 10 6 C10 7.32 10 8.64 10 10 C10.66 10 11.32 10 12 10 C12 10.66 12 11.32 12 12 C12.66 12 13.32 12 14 12 C14 12.66 14 13.32 14 14 C14.66 14 15.32 14 16 14 C16 14.66 16 15.32 16 16 C16.66 16 17.32 16 18 16 C18 16.66 18 17.32 18 18 C18.66 18 19.32 18 20 18 C20 18.66 20 19.32 20 20 C20.66 20 21.32 20 22 20 C22 21.32 22 22.64 22 24 C22.66 24 23.32 24 24 24 C24 24.66 24 25.32 24 26 C25.32 26 26.64 26 28 26 C28 26.66 28 27.32 28 28 C28.66 28 29.32 28 30 28 C30 29.32 30 30.64 30 32 C28.02 32 26.04 32 24 32 C24 31.34 24 30.68 24 30 C23.34 30 22.68 30 22 30 C22 29.34 22 28.68 22 28 C21.34 28 20.68 28 20 28 C20 27.34 20 26.68 20 26 C19.34 26 18.68 26 18 26 C18 25.34 18 24.68 18 24 C17.34 24 16.68 24 16 24 C16 23.34 16 22.68 16 22 C15.34 22 14.68 22 14 22 C14 21.34 14 20.68 14 20 C13.34 20 12.68 20 12 20 C12 19.34 12 18.68 12 18 C11.34 18 10.68 18 10 18 C10 17.34 10 16.68 10 16 C9.34 16 8.68 16 8 16 C8 15.34 8 14.68 8 14 C7.34 14 6.68 14 6 14 C6 13.34 6 12.68 6 12 C5.34 12 4.68 12 4 12 C4 10.68 4 9.36 4 8 C2.68 8 1.36 8 0 8 C0 9.32 0 10.64 0 12 C-0.66 12 -1.32 12 -2 12 C-2 12.66 -2 13.32 -2 14 C-2.66 14 -3.32 14 -4 14 C-4 14.66 -4 15.32 -4 16 C-4.66 16 -5.32 16 -6 16 C-6 16.66 -6 17.32 -6 18 C-6.66 18 -7.32 18 -8 18 C-8 18.66 -8 19.32 -8 20 C-8.66 20 -9.32 20 -10 20 C-10 20.66 -10 21.32 -10 22 C-10.66 22 -11.32 22 -12 22 C-12 22.66 -12 23.32 -12 24 C-12.66 24 -13.32 24 -14 24 C-14 24.66 -14 25.32 -14 26 C-14.66 26 -15.32 26 -16 26 C-16 26.66 -16 27.32 -16 28 C-6.1 28 3.8 28 14 28 C14 28.66 14 29.32 14 30 C14.66 30 15.32 30 16 30 C16 30.66 16 31.32 16 32 C2.14 32 -11.72 32 -26 32 C-26 31.34 -26 30.68 -26 30 C-25.34 30 -24.68 30 -24 30 C-24 29.34 -24 28.68 -24 28 C-23.34 28 -22.68 28 -22 28 C-22 26.68 -22 25.36 -22 24 C-21.34 24 -20.68 24 -20 24 C-20 23.34 -20 22.68 -20 22 C-19.34 22 -18.68 22 -18 22 C-18 21.34 -18 20.68 -18 20 C-17.34 20 -16.68 20 -16 20 C-16 19.34 -16 18.68 -16 18 C-15.34 18 -14.68 18 -14 18 C-14 17.34 -14 16.68 -14 16 C-13.34 16 -12.68 16 -12 16 C-12 15.34 -12 14.68 -12 14 C-11.34 14 -10.68 14 -10 14 C-10 13.34 -10 12.68 -10 12 C-9.34 12 -8.68 12 -8 12 C-8 11.34 -8 10.68 -8 10 C-7.34 10 -6.68 10 -6 10 C-6 9.34 -6 8.68 -6 8 C-5.34 8 -4.68 8 -4 8 C-4 7.34 -4 6.68 -4 6 C-3.34 6 -2.68 6 -2 6 C-2 5.34 -2 4.68 -2 4 C-1.34 4 -0.68 4 0 4 C0 2.68 0 1.36 0 0 Z " fill="#68B3CE" transform="translate(675,218)"/>
<path d="M0 0 C16.5 0 33 0 50 0 C50 1.32 50 2.64 50 4 C34.82 4 19.64 4 4 4 C4 4.66 4 5.32 4 6 C3.34 6 2.68 6 2 6 C2 6.66 2 7.32 2 8 C0.68 8 -0.64 8 -2 8 C-2 9.32 -2 10.64 -2 12 C-2.66 12 -3.32 12 -4 12 C-4 15.3 -4 18.6 -4 22 C-3.34 22 -2.68 22 -2 22 C-2 22.66 -2 23.32 -2 24 C-1.34 24 -0.68 24 0 24 C0 24.66 0 25.32 0 26 C1.32 26 2.64 26 4 26 C4 26.66 4 27.32 4 28 C19.18 28 34.36 28 50 28 C50 29.32 50 30.64 50 32 C33.5 32 17 32 0 32 C0 31.34 0 30.68 0 30 C-0.66 30 -1.32 30 -2 30 C-2 29.34 -2 28.68 -2 28 C-3.32 28 -4.64 28 -6 28 C-6 26.68 -6 25.36 -6 24 C-6.66 24 -7.32 24 -8 24 C-8 18.72 -8 13.44 -8 8 C-7.34 8 -6.68 8 -6 8 C-6 7.34 -6 6.68 -6 6 C-5.34 6 -4.68 6 -4 6 C-4 5.34 -4 4.68 -4 4 C-3.34 4 -2.68 4 -2 4 C-2 3.34 -2 2.68 -2 2 C-1.34 2 -0.68 2 0 2 C0 1.34 0 0.68 0 0 Z " fill="#6BB9D6" transform="translate(263,218)"/>
<path d="M0 0 C15.18 0 30.36 0 46 0 C46 0.66 46 1.32 46 2 C46.66 2 47.32 2 48 2 C48 3.98 48 5.96 48 8 C47.34 8 46.68 8 46 8 C46 8.66 46 9.32 46 10 C30.82 10 15.64 10 0 10 C0 6.7 0 3.4 0 0 Z " fill="#1C2732" transform="translate(45,236)"/>
<path d="M0 0 C1.98 0 3.96 0 6 0 C6 7.26 6 14.52 6 22 C6.66 22 7.32 22 8 22 C8 21.34 8 20.68 8 20 C9.32 20 10.64 20 12 20 C12 19.34 12 18.68 12 18 C12.66 18 13.32 18 14 18 C14 17.34 14 16.68 14 16 C15.32 16 16.64 16 18 16 C18 15.34 18 14.68 18 14 C18.66 14 19.32 14 20 14 C20 13.34 20 12.68 20 12 C21.32 12 22.64 12 24 12 C24 11.34 24 10.68 24 10 C24.66 10 25.32 10 26 10 C26 9.34 26 8.68 26 8 C27.32 8 28.64 8 30 8 C30 7.34 30 6.68 30 6 C30.66 6 31.32 6 32 6 C32 5.34 32 4.68 32 4 C33.32 4 34.64 4 36 4 C36 3.34 36 2.68 36 2 C36.66 2 37.32 2 38 2 C38 1.34 38 0.68 38 0 C41.3 0 44.6 0 48 0 C48 0.66 48 1.32 48 2 C47.34 2 46.68 2 46 2 C46 2.66 46 3.32 46 4 C44.68 4 43.36 4 42 4 C42 4.66 42 5.32 42 6 C41.34 6 40.68 6 40 6 C40 6.66 40 7.32 40 8 C38.68 8 37.36 8 36 8 C36 8.66 36 9.32 36 10 C35.34 10 34.68 10 34 10 C34 10.66 34 11.32 34 12 C32.68 12 31.36 12 30 12 C30 12.66 30 13.32 30 14 C29.34 14 28.68 14 28 14 C28 14.66 28 15.32 28 16 C26.68 16 25.36 16 24 16 C24 16.66 24 17.32 24 18 C23.34 18 22.68 18 22 18 C22 18.66 22 19.32 22 20 C20.68 20 19.36 20 18 20 C18 20.66 18 21.32 18 22 C16.68 22 15.36 22 14 22 C14 22.66 14 23.32 14 24 C13.34 24 12.68 24 12 24 C12 24.66 12 25.32 12 26 C10.68 26 9.36 26 8 26 C8 26.66 8 27.32 8 28 C7.34 28 6.68 28 6 28 C6 28.66 6 29.32 6 30 C4.68 30 3.36 30 2 30 C2 30.66 2 31.32 2 32 C1.34 32 0.68 32 0 32 C0 21.44 0 10.88 0 0 Z " fill="#67B2CD" transform="translate(331,218)"/>
<path d="M0 0 C1.98 0 3.96 0 6 0 C6 0.66 6 1.32 6 2 C6.66 2 7.32 2 8 2 C8 2.66 8 3.32 8 4 C8.66 4 9.32 4 10 4 C10 4.66 10 5.32 10 6 C10.66 6 11.32 6 12 6 C12 6.66 12 7.32 12 8 C12.66 8 13.32 8 14 8 C14 9.32 14 10.64 14 12 C14.66 12 15.32 12 16 12 C16 12.66 16 13.32 16 14 C17.32 14 18.64 14 20 14 C20 14.66 20 15.32 20 16 C20.66 16 21.32 16 22 16 C22 17.32 22 18.64 22 20 C22.66 20 23.32 20 24 20 C24 20.66 24 21.32 24 22 C24.66 22 25.32 22 26 22 C26 22.66 26 23.32 26 24 C27.32 24 28.64 24 30 24 C30 23.34 30 22.68 30 22 C30.66 22 31.32 22 32 22 C32 21.34 32 20.68 32 20 C32.66 20 33.32 20 34 20 C34 19.34 34 18.68 34 18 C34.66 18 35.32 18 36 18 C36 16.68 36 15.36 36 14 C36.66 14 37.32 14 38 14 C38 13.34 38 12.68 38 12 C38.66 12 39.32 12 40 12 C40 11.34 40 10.68 40 10 C40.66 10 41.32 10 42 10 C42 9.34 42 8.68 42 8 C42.66 8 43.32 8 44 8 C44 7.34 44 6.68 44 6 C44.66 6 45.32 6 46 6 C46 5.34 46 4.68 46 4 C46.66 4 47.32 4 48 4 C48 3.34 48 2.68 48 2 C48.66 2 49.32 2 50 2 C50 1.34 50 0.68 50 0 C51.98 0 53.96 0 56 0 C56 1.32 56 2.64 56 4 C55.34 4 54.68 4 54 4 C54 4.66 54 5.32 54 6 C53.34 6 52.68 6 52 6 C52 6.66 52 7.32 52 8 C51.34 8 50.68 8 50 8 C50 8.66 50 9.32 50 10 C49.34 10 48.68 10 48 10 C48 10.66 48 11.32 48 12 C47.34 12 46.68 12 46 12 C46 12.66 46 13.32 46 14 C45.34 14 44.68 14 44 14 C44 14.66 44 15.32 44 16 C43.34 16 42.68 16 42 16 C42 16.66 42 17.32 42 18 C41.34 18 40.68 18 40 18 C40 18.66 40 19.32 40 20 C39.34 20 38.68 20 38 20 C38 20.66 38 21.32 38 22 C37.34 22 36.68 22 36 22 C36 23.32 36 24.64 36 26 C35.34 26 34.68 26 34 26 C34 26.66 34 27.32 34 28 C33.34 28 32.68 28 32 28 C32 28.66 32 29.32 32 30 C31.34 30 30.68 30 30 30 C30 30.66 30 31.32 30 32 C28.68 32 27.36 32 26 32 C26 31.34 26 30.68 26 30 C25.34 30 24.68 30 24 30 C24 29.34 24 28.68 24 28 C23.34 28 22.68 28 22 28 C22 27.34 22 26.68 22 26 C21.34 26 20.68 26 20 26 C20 25.34 20 24.68 20 24 C19.34 24 18.68 24 18 24 C18 23.34 18 22.68 18 22 C17.34 22 16.68 22 16 22 C16 20.68 16 19.36 16 18 C15.34 18 14.68 18 14 18 C14 17.34 14 16.68 14 16 C13.34 16 12.68 16 12 16 C12 15.34 12 14.68 12 14 C11.34 14 10.68 14 10 14 C10 13.34 10 12.68 10 12 C9.34 12 8.68 12 8 12 C8 11.34 8 10.68 8 10 C7.34 10 6.68 10 6 10 C6 9.34 6 8.68 6 8 C5.34 8 4.68 8 4 8 C4 7.34 4 6.68 4 6 C3.34 6 2.68 6 2 6 C2 4.68 2 3.36 2 2 C1.34 2 0.68 2 0 2 C0 1.34 0 0.68 0 0 Z " fill="#65AEC9" transform="translate(401,218)"/>
<path d="M0 0 C1.32 0 2.64 0 4 0 C4 9.24 4 18.48 4 28 C17.86 28 31.72 28 46 28 C46 29.32 46 30.64 46 32 C30.82 32 15.64 32 0 32 C0 21.44 0 10.88 0 0 Z " fill="#6FC0DD" transform="translate(119,218)"/>
<path d="M0 0 C1.98 0 3.96 0 6 0 C6 10.56 6 21.12 6 32 C4.02 32 2.04 32 0 32 C0 21.44 0 10.88 0 0 Z " fill="#65AFCA" transform="translate(725,218)"/>
<path d="M0 0 C0.66 0 1.32 0 2 0 C2 10.56 2 21.12 2 32 C17.18 32 32.36 32 48 32 C48 30.68 48 29.36 48 28 C48.66 28 49.32 28 50 28 C50 29.98 50 31.96 50 34 C33.5 34 17 34 0 34 C0 22.78 0 11.56 0 0 Z " fill="#3B6274" transform="translate(117,218)"/>
<path d="M0 0 C1.98 0 3.96 0 6 0 C6 9.24 6 18.48 6 28 C19.2 28 32.4 28 46 28 C46 28.66 46 29.32 46 30 C32.14 30 18.28 30 4 30 C4 20.76 4 11.52 4 2 C2.68 2 1.36 2 0 2 C0 1.34 0 0.68 0 0 Z " fill="#273C4A" transform="translate(119,216)"/>
<path d="M0 0 C1.32 0 2.64 0 4 0 C4 0.66 4 1.32 4 2 C4.66 2 5.32 2 6 2 C6 2.66 6 3.32 6 4 C6.66 4 7.32 4 8 4 C8 4.66 8 5.32 8 6 C9.32 6 10.64 6 12 6 C12 7.32 12 8.64 12 10 C13.32 10 14.64 10 16 10 C16 10.66 16 11.32 16 12 C16.66 12 17.32 12 18 12 C18 12.66 18 13.32 18 14 C18.66 14 19.32 14 20 14 C20 14.66 20 15.32 20 16 C17.36 16 14.72 16 12 16 C12 15.34 12 14.68 12 14 C11.34 14 10.68 14 10 14 C10 13.34 10 12.68 10 12 C8.68 12 7.36 12 6 12 C6 11.34 6 10.68 6 10 C5.34 10 4.68 10 4 10 C4 9.34 4 8.68 4 8 C3.34 8 2.68 8 2 8 C2 7.34 2 6.68 2 6 C1.34 6 0.68 6 0 6 C0 5.34 0 4.68 0 4 C-0.66 4 -1.32 4 -2 4 C-2 3.34 -2 2.68 -2 2 C-1.34 2 -0.68 2 0 2 C0 1.34 0 0.68 0 0 Z " fill="#61A8C1" transform="translate(361,234)"/>
<path d="M0 0 C0.66 0 1.32 0 2 0 C2 0.66 2 1.32 2 2 C16.52 2 31.04 2 46 2 C46 2.66 46 3.32 46 4 C30.82 4 15.64 4 0 4 C0 2.68 0 1.36 0 0 Z " fill="#315060" transform="translate(647,248)"/>
<path d="M0 0 C0.66 0 1.32 0 2 0 C2 0.66 2 1.32 2 2 C15.86 2 29.72 2 44 2 C44 2.66 44 3.32 44 4 C29.48 4 14.96 4 0 4 C0 2.68 0 1.36 0 0 Z " fill="#335364" transform="translate(183,248)"/>
<path d="M0 0 C0.66 0 1.32 0 2 0 C2 0.66 2 1.32 2 2 C10.58 2 19.16 2 28 2 C28 2.66 28 3.32 28 4 C18.1 4 8.2 4 -2 4 C-2 3.34 -2 2.68 -2 2 C-1.34 2 -0.68 2 0 2 C0 1.34 0 0.68 0 0 Z " fill="#283E4D" transform="translate(661,242)"/>
<path d="M0 0 C1.98 0 3.96 0 6 0 C6 9.24 6 18.48 6 28 C5.34 28 4.68 28 4 28 C4 19.42 4 10.84 4 2 C2.68 2 1.36 2 0 2 C0 1.34 0 0.68 0 0 Z " fill="#1C2834" transform="translate(119,216)"/>
<path d="M0 0 C0.66 0 1.32 0 2 0 C2 0.66 2 1.32 2 2 C3.32 2 4.64 2 6 2 C6 2.66 6 3.32 6 4 C0.06 4 -5.88 4 -12 4 C-12 3.34 -12 2.68 -12 2 C-8.04 2 -4.08 2 0 2 C0 1.34 0 0.68 0 0 Z " fill="#345667" transform="translate(397,66)"/>
<path d="M0 0 C3.96 0 7.92 0 12 0 C12 0.66 12 1.32 12 2 C10.68 2 9.36 2 8 2 C8 2.66 8 3.32 8 4 C6.68 4 5.36 4 4 4 C4 3.34 4 2.68 4 2 C2.68 2 1.36 2 0 2 C0 1.34 0 0.68 0 0 Z " fill="#2C4756" transform="translate(391,146)"/>
<path d="M0 0 C0.66 0 1.32 0 2 0 C2 3.96 2 7.92 2 12 C1.34 12 0.68 12 0 12 C0 10.68 0 9.36 0 8 C-0.66 8 -1.32 8 -2 8 C-2 6.68 -2 5.36 -2 4 C-1.34 4 -0.68 4 0 4 C0 2.68 0 1.36 0 0 Z " fill="#304F5F" transform="translate(363,108)"/>
<path d="M0 0 C1.32 0 2.64 0 4 0 C4 0.66 4 1.32 4 2 C3.34 2 2.68 2 2 2 C2 2.66 2 3.32 2 4 C1.34 4 0.68 4 0 4 C0 4.66 0 5.32 0 6 C-0.66 6 -1.32 6 -2 6 C-2 5.34 -2 4.68 -2 4 C-3.32 4 -4.64 4 -6 4 C-6 3.34 -6 2.68 -6 2 C-4.02 2 -2.04 2 0 2 C0 1.34 0 0.68 0 0 Z " fill="#457488" transform="translate(433,156)"/>
<path d="M0 0 C1.32 0 2.64 0 4 0 C4 0.66 4 1.32 4 2 C5.32 2 6.64 2 8 2 C8 3.32 8 4.64 8 6 C7.34 6 6.68 6 6 6 C6 5.34 6 4.68 6 4 C4.68 4 3.36 4 2 4 C2 3.34 2 2.68 2 2 C1.34 2 0.68 2 0 2 C0 1.34 0 0.68 0 0 Z " fill="#406B7E" transform="translate(355,148)"/>
<path d="M0 0 C0.66 0 1.32 0 2 0 C2 1.32 2 2.64 2 4 C-0.64 4 -3.28 4 -6 4 C-6 3.34 -6 2.68 -6 2 C-4.02 2 -2.04 2 0 2 C0 1.34 0 0.68 0 0 Z " fill="#325262" transform="translate(705,248)"/>
<path d="M0 0 C2.64 0 5.28 0 8 0 C8 1.32 8 2.64 8 4 C7.34 4 6.68 4 6 4 C6 3.34 6 2.68 6 2 C4.02 2 2.04 2 0 2 C0 1.34 0 0.68 0 0 Z " fill="#29404E" transform="translate(597,216)"/>
<path d="M0 0 C2.64 0 5.28 0 8 0 C8 1.32 8 2.64 8 4 C7.34 4 6.68 4 6 4 C6 3.34 6 2.68 6 2 C4.02 2 2.04 2 0 2 C0 1.34 0 0.68 0 0 Z " fill="#223340" transform="translate(373,216)"/>
<path d="M0 0 C2.64 0 5.28 0 8 0 C8 1.32 8 2.64 8 4 C7.34 4 6.68 4 6 4 C6 3.34 6 2.68 6 2 C4.02 2 2.04 2 0 2 C0 1.34 0 0.68 0 0 Z " fill="#345667" transform="translate(405,172)"/>
<path d="M0 0 C1.98 0 3.96 0 6 0 C6 1.32 6 2.64 6 4 C4.68 4 3.36 4 2 4 C2 3.34 2 2.68 2 2 C1.34 2 0.68 2 0 2 C0 1.34 0 0.68 0 0 Z " fill="#457589" transform="translate(391,168)"/>
</svg>
